<?xml version="1.0" standalone="no"?>
<!DOCTYPE svg PUBLIC "-//W3C//DTD SVG 20010904//EN"
 "http://www.w3.org/TR/2001/REC-SVG-20010904/DTD/svg10.dtd">
<svg version="1.0" xmlns="http://www.w3.org/2000/svg"
 width="400.000000pt" height="400.000000pt" viewBox="0 0 400.000000 400.000000"
 preserveAspectRatio="xMidYMid meet">
<metadata>
Created by potrace 1.11, written by Peter Selinger 2001-2013
</metadata>
<g transform="translate(0.000000,400.000000) scale(0.100000,-0.100000)"
fill="#000000" stroke="none">
<path d="M1541 3978 c-4 -13 -18 -50 -31 -83 -26 -72 -29 -145 -6 -181 l17
-25 -31 16 c-84 44 -259 -50 -356 -190 -33 -49 -40 -54 -63 -47 -14 4 -62 7
-106 6 -100 -1 -197 -37 -317 -117 -189 -126 -316 -302 -340 -473 -20 -145 8
-261 122 -519 35 -77 94 -220 131 -318 83 -214 139 -348 186 -440 18 -37 31
-72 28 -77 -3 -5 -156 -8 -348 -8 -288 1 -345 3 -359 16 -16 13 -20 13 -43 -2
-23 -15 -25 -23 -25 -86 0 -54 3 -70 14 -70 8 0 17 -6 19 -12 4 -10 6 -10 6 0
1 6 11 11 24 11 16 -1 18 -2 4 -6 -9 -2 -17 -11 -17 -19 0 -10 -7 -13 -25 -8
l-25 6 0 -86 c0 -51 4 -86 10 -86 6 0 10 -5 10 -11 0 -5 -5 -7 -10 -4 -11 7
-9 -596 2 -693 5 -44 28 -84 28 -48 0 15 5 17 29 13 23 -5 30 -2 34 13 3 10 0
21 -6 23 -6 2 -7 9 -3 16 13 21 27 -9 20 -42 -3 -16 -1 -27 5 -27 6 0 11 -9
11 -20 0 -11 -6 -20 -13 -20 -18 0 -37 -34 -31 -57 3 -11 -4 -27 -20 -42 -18
-17 -26 -20 -26 -10 0 12 -2 11 -10 -1 -9 -13 -11 -13 -20 0 -7 11 -9 9 -6
-11 1 -13 5 -30 9 -36 4 -6 3 -14 -3 -18 -13 -8 -13 -35 0 -35 6 0 10 8 10 17
0 9 3 14 6 10 9 -8 -6 -68 -16 -62 -4 2 -7 -7 -7 -20 0 -14 3 -25 8 -25 4 0
11 -20 15 -45 7 -48 19 -58 29 -25 4 11 15 20 27 20 16 0 19 5 15 21 -3 13 2
28 14 40 10 10 19 15 19 11 0 -4 -5 -13 -12 -20 -8 -8 -8 -12 -1 -12 6 0 10
-11 9 -24 0 -13 -5 -24 -11 -23 -5 1 -9 -4 -7 -11 2 -9 -4 -12 -17 -7 -11 3
-22 1 -26 -5 -4 -6 15 -10 55 -10 51 0 61 3 57 15 -4 8 -2 17 3 20 6 4 10 -3
10 -14 0 -20 5 -21 164 -21 l164 0 7 53 c4 28 20 104 35 167 109 445 347 806
687 1041 l73 50 38 -29 c48 -38 103 -66 232 -118 l105 -42 5 -109 c3 -59 9
-116 14 -125 11 -24 47 -45 89 -53 31 -6 37 -12 41 -39 9 -58 66 -610 72 -704
l7 -92 482 0 483 0 -15 78 c-23 123 -49 220 -114 415 -57 175 -89 311 -89 384
0 30 3 34 18 28 39 -17 129 -18 155 -1 45 30 53 67 34 160 -25 121 -24 127 19
85 168 -160 276 -464 291 -819 l6 -135 -44 65 c-24 36 -74 97 -111 135 -64 68
-67 73 -74 133 -7 64 -22 89 -49 78 -10 -4 -15 -19 -15 -50 l0 -45 -28 16
c-33 19 -62 12 -62 -16 0 -13 18 -29 56 -50 105 -60 224 -202 329 -393 l37
-68 60 0 c49 0 59 3 54 15 -4 11 1 15 19 15 26 0 34 -15 13 -23 -7 -3 47 -6
120 -6 81 -1 131 3 127 8 -3 6 1 25 10 43 8 18 12 23 9 11 -4 -18 -2 -22 11
-17 10 4 14 14 10 28 -2 11 -2 16 1 9 3 -7 12 -9 20 -6 12 4 14 0 8 -20 -8
-34 10 -51 56 -54 21 -1 29 1 21 6 -8 6 -9 11 -3 15 6 3 17 -1 25 -9 19 -19
41 -19 56 -1 9 11 9 16 1 21 -7 5 0 14 19 26 38 23 33 23 59 1 14 -13 18 -22
11 -33 -6 -10 -9 -10 -9 -1 0 6 -7 12 -15 12 -16 0 -19 -9 -7 -27 11 -18 80
-14 86 6 3 9 5 133 5 276 -1 227 -3 261 -18 272 -15 11 -14 12 2 13 16 0 17
10 16 95 -1 74 -4 95 -15 95 -8 0 -14 -7 -14 -16 0 -14 -3 -14 -15 -4 -9 8
-15 8 -15 2 0 -6 10 -14 21 -17 19 -6 20 -8 5 -23 -14 -14 -18 -14 -48 1 -18
10 -25 15 -15 13 19 -6 22 2 6 24 -8 11 -12 12 -16 3 -3 -10 -8 -9 -19 2 -11
10 -21 12 -38 5 -13 -5 -27 -6 -30 -3 -3 4 -6 -1 -6 -10 0 -20 -11 -22 -28 -5
-10 10 -15 10 -20 1 -6 -9 -11 -7 -20 7 -14 22 -10 24 93 36 86 9 106 11 143
13 l32 1 -1 278 c0 152 -3 271 -6 265 -2 -7 -12 -13 -20 -13 -12 0 -14 -8 -10
-35 3 -19 1 -37 -4 -40 -5 -4 -9 1 -9 9 0 15 -28 22 -66 17 -7 -1 -14 8 -17
20 -5 18 -9 20 -20 10 -12 -9 -16 -8 -21 5 -4 10 -12 14 -23 10 -9 -4 -20 -1
-25 6 -6 8 -7 4 -2 -12 6 -22 5 -23 -9 -11 -9 7 -14 17 -11 22 3 5 -4 9 -16 9
-13 0 -19 -4 -14 -11 3 -6 0 -15 -7 -20 -21 -13 -59 -11 -59 4 0 7 -7 4 -15
-7 -13 -17 -19 -18 -52 -8 -39 12 -69 1 -56 -22 4 -8 2 -7 -7 1 -7 6 -27 9
-45 6 -19 -3 -35 0 -39 6 -6 10 21 17 47 12 5 -1 6 3 2 9 -3 5 -12 10 -20 10
-7 0 -16 6 -18 13 -4 9 -6 9 -6 0 -1 -7 -9 -13 -19 -13 -10 0 -23 -5 -30 -12
-8 -8 -12 -8 -12 -1 0 15 -42 24 -57 12 -17 -15 -32 -3 -26 21 3 11 0 20 -6
20 -6 0 -11 -9 -11 -20 0 -20 -33 -29 -44 -11 -7 11 -58 2 -71 -13 -5 -6 -21
-12 -35 -13 -25 -1 -25 -1 3 10 15 6 27 14 27 18 0 11 -29 19 -35 10 -5 -10
-45 -3 -45 8 0 3 11 16 24 29 23 21 25 22 36 5 8 -13 13 -14 16 -5 3 6 23 12
44 12 21 0 42 5 45 10 5 8 11 7 21 -1 7 -6 21 -9 29 -5 9 3 18 -1 21 -9 4 -10
11 -12 22 -6 20 11 120 2 128 -11 3 -5 14 2 25 16 19 24 21 25 61 10 23 -8 54
-12 69 -9 15 4 30 1 34 -4 4 -8 12 -8 25 -1 24 13 60 13 60 0 0 -6 15 -8 38
-4 35 6 80 6 127 1 11 -1 26 -7 32 -14 7 -6 22 -9 33 -6 16 4 20 14 20 47 0
22 -4 46 -8 52 -4 8 -40 11 -104 10 -53 -1 -94 2 -92 6 3 4 0 8 -5 8 -6 0 -11
-5 -11 -10 0 -12 -48 -3 -67 12 -7 5 -22 6 -35 2 -13 -4 -36 -7 -53 -6 -93 5
-282 11 -361 12 -49 1 -96 5 -103 9 -10 7 -3 26 29 81 23 40 55 101 71 135
l28 63 133 42 c162 51 345 137 478 224 95 62 100 67 100 101 l0 35 -92 -64
c-178 -122 -368 -209 -580 -265 -153 -41 -250 -57 -466 -81 -101 -11 -192 -25
-202 -30 -40 -21 -12 -68 31 -52 13 5 48 12 77 16 63 8 66 -5 12 -42 -48 -32
-104 -44 -190 -40 -74 3 -75 3 -75 -22 0 -17 7 -26 23 -30 21 -4 12 -14 -75
-82 -96 -76 -99 -78 -154 -78 -59 0 -108 23 -379 180 -36 20 -114 63 -175 95
-188 98 -282 177 -320 269 -9 21 -29 103 -46 184 -16 80 -31 147 -33 149 -2 3
-6 -125 -9 -284 -4 -251 -7 -299 -26 -371 -48 -188 -132 -272 -262 -260 -140
14 -229 148 -426 646 -3 7 3 12 16 12 55 0 171 76 171 111 0 32 -27 33 -67 0
-21 -16 -55 -37 -76 -46 -37 -15 -77 -13 -77 5 0 7 -95 238 -126 306 -3 7 14
13 45 17 71 8 141 41 141 65 0 30 -25 33 -72 12 -43 -20 -123 -26 -145 -12 -6
4 -26 50 -43 101 -90 269 -25 483 202 666 249 199 473 218 629 54 100 -105
158 -268 180 -512 6 -75 13 -136 15 -134 1 1 10 47 19 102 44 266 78 325 293
503 59 49 73 83 49 124 l-16 27 38 -24 c58 -39 90 -45 331 -60 124 -8 250 -19
280 -25 30 -7 123 -41 206 -76 157 -66 226 -86 278 -77 40 6 86 -28 86 -64 0
-14 -13 -48 -30 -74 -44 -72 -45 -87 -10 -142 37 -59 41 -91 5 -48 -40 47
-123 83 -193 83 -100 0 -179 -47 -228 -134 -24 -44 -29 -65 -29 -123 0 -58 5
-78 27 -116 78 -132 246 -235 429 -261 65 -10 78 -15 73 -28 -14 -34 -27 -137
-20 -163 5 -22 12 -28 29 -25 20 3 23 10 28 76 8 107 25 125 123 134 42 4 93
12 113 17 60 17 63 15 64 -36 1 -88 50 -176 80 -146 9 9 7 28 -11 82 -27 84
-21 127 18 143 15 6 69 31 121 55 51 23 95 43 97 43 2 0 4 -11 4 -24 0 -50 58
-156 86 -156 27 0 27 30 1 79 -28 50 -43 119 -30 136 4 6 33 28 63 49 30 22
88 66 128 98 68 56 72 62 72 100 l0 40 -57 -53 c-81 -74 -200 -161 -291 -212
-118 -66 -115 -67 -85 11 58 152 68 200 68 332 0 106 -4 136 -24 193 -47 137
-166 279 -319 381 -103 68 -182 98 -274 104 l-77 5 -12 56 c-6 30 -26 89 -44
129 l-32 73 -7 -82 c-7 -91 -23 -136 -57 -168 -51 -48 -97 -24 -259 133 -69
67 -146 134 -172 149 -137 79 -305 75 -573 -13 -91 -29 -121 -36 -123 -25 -2
7 4 40 12 73 23 87 21 89 -34 23 -27 -33 -54 -62 -59 -66 -21 -13 -31 35 -25
120 7 84 1 106 -15 63z m1473 -527 c6 -9 -94 -104 -101 -97 -2 2 2 24 9 49 12
46 19 52 70 56 9 0 19 -3 22 -8z m155 -42 c126 -58 270 -184 336 -294 53 -89
76 -173 76 -280 1 -111 -19 -199 -74 -334 l-42 -104 -70 -24 c-76 -26 -232
-53 -308 -53 -47 0 -47 0 -40 28 14 51 7 155 -13 202 -19 46 -19 100 1 231 7
47 -7 91 -43 131 -13 16 -11 25 23 92 44 87 43 125 -4 170 l-29 27 29 52 c16
29 34 84 41 125 14 83 8 81 117 31z m-346 -561 c22 -7 59 -30 81 -52 l41 -40
-65 -7 c-99 -12 -300 -15 -300 -6 0 23 46 68 92 91 58 29 91 32 151 14z m143
-173 c11 -27 -17 -111 -48 -150 -38 -45 -98 -74 -155 -75 -56 0 -84 12 -133
56 -52 47 -70 82 -70 134 0 33 3 40 20 40 13 0 20 -7 20 -18 0 -25 19 -42 48
-42 17 0 27 8 35 30 13 35 21 37 165 39 91 1 114 -2 118 -14z m31 -263 c-3
-35 -9 -68 -15 -74 -11 -11 -160 26 -189 48 -17 12 -16 13 8 14 39 0 127 48
157 86 26 33 27 33 35 11 5 -12 7 -51 4 -85z m-1475 -649 c68 -52 109 -77 243
-147 126 -67 376 -206 389 -217 5 -4 -18 -21 -51 -37 -32 -17 -86 -51 -118
-75 l-60 -45 -13 79 c-12 81 -42 153 -81 199 l-21 25 10 -27 c9 -28 9 -28 -34
-28 -55 0 -101 -35 -116 -88 -9 -30 -7 -53 9 -121 11 -47 18 -87 16 -89 -8 -8
-148 47 -230 91 -100 54 -125 87 -125 166 0 31 9 83 19 117 18 55 29 121 47
267 l6 49 29 -40 c16 -22 53 -57 81 -79z m1662 -75 c-90 -179 -198 -301 -285
-323 -23 -6 -24 -3 -25 45 -1 53 -26 93 -66 106 -31 9 -15 82 24 113 17 13 36
39 44 56 13 31 16 32 86 39 40 4 105 13 143 20 126 24 121 27 79 -56z m-444
-138 c0 -21 -5 -30 -16 -30 -8 0 -12 5 -9 10 3 6 4 10 1 10 -8 0 -42 -71 -50
-104 -4 -16 -7 -58 -7 -93 0 -35 -2 -63 -4 -63 -3 0 -30 17 -62 38 -32 20 -77
46 -101 56 -23 10 -42 22 -42 27 0 4 45 43 100 86 70 54 112 80 138 84 20 3
40 7 45 8 4 0 7 -12 7 -29z m426 -97 c-10 -10 -19 5 -10 18 6 11 8 11 12 0 2
-7 1 -15 -2 -18z m-2501 -23 c3 -5 1 -10 -4 -10 -6 0 -11 5 -11 10 0 6 2 10 4
10 3 0 8 -4 11 -10z m41 -27 c-10 -10 -19 5 -10 18 6 11 8 11 12 0 2 -7 1 -15
-2 -18z m154 23 c0 -3 -4 -8 -10 -11 -5 -3 -10 -1 -10 4 0 6 5 11 10 11 6 0
10 -2 10 -4z m-650 -12 c0 -13 -30 -34 -47 -33 -10 0 -13 3 -5 6 6 2 12 11 12
19 0 8 9 14 20 14 11 0 20 -3 20 -6z m60 -4 c0 -5 -4 -10 -10 -10 -5 0 -10 5
-10 10 0 6 5 10 10 10 6 0 10 -4 10 -10z m350 0 c0 -5 11 -10 25 -10 14 0 25
-4 25 -10 0 -14 -32 -12 -52 4 -20 15 -23 26 -8 26 6 0 10 -4 10 -10z m83 -44
c4 -10 -3 -17 -23 -21 -17 -4 -32 -11 -35 -16 -8 -12 -35 -12 -35 1 0 6 9 10
20 10 11 0 20 5 20 10 0 6 7 10 15 10 8 0 15 5 15 10 0 15 17 12 23 -4z m2347
-17 c0 -13 -7 -19 -23 -19 -35 0 -41 12 -15 31 26 20 38 16 38 -12z m-2468 -7
c-7 -2 -12 -9 -12 -16 0 -7 -7 -21 -15 -32 -14 -18 -15 -18 -12 5 2 26 40 72
46 57 2 -6 -1 -12 -7 -14z m684 11 c-10 -10 -46 -11 -40 -1 3 4 15 8 26 8 12
0 18 -3 14 -7z m-516 -13 c0 -5 -2 -10 -4 -10 -3 0 -8 5 -11 10 -3 6 -1 10 4
10 6 0 11 -4 11 -10z m40 -4 c0 -8 -4 -18 -10 -21 -5 -3 -10 3 -10 14 0 12 5
21 10 21 6 0 10 -6 10 -14z m74 -36 c6 0 5 -4 -3 -9 -21 -14 -38 -3 -35 22 4
41 6 42 17 15 6 -16 16 -28 21 -28z m326 26 c0 -2 -7 -6 -15 -10 -8 -3 -15 -1
-15 4 0 6 7 10 15 10 8 0 15 -2 15 -4z m-670 -16 c0 -6 -8 -11 -17 -11 -19 -2
-43 -5 -56 -8 -4 0 -3 -11 4 -22 9 -17 13 -19 20 -8 4 7 11 10 15 7 3 -4 -1
-14 -10 -23 -9 -9 -16 -12 -16 -7 0 16 -27 21 -62 12 -25 -8 -34 -7 -41 5 -11
20 -33 19 -41 -1 -4 -11 -13 -14 -27 -11 -15 4 -19 2 -15 -9 3 -8 2 -14 -3
-14 -5 0 -12 11 -15 25 -6 23 -26 36 -26 17 0 -5 -11 -14 -24 -20 -21 -10 -26
-8 -31 8 -4 14 -15 20 -36 20 -18 0 -28 4 -24 10 3 6 19 10 36 10 16 0 29 -4
29 -10 0 -16 37 -12 44 5 5 13 9 13 26 3 16 -10 22 -10 28 -1 4 7 37 15 72 19
36 3 66 7 67 8 9 7 103 4 103 -4z m2570 0 c0 -5 -5 -10 -11 -10 -5 0 -7 5 -4
10 3 6 8 10 11 10 2 0 4 -4 4 -10z m-105 -9 c-8 -14 14 -24 28 -13 7 5 23 9
37 7 14 -1 41 -3 60 -4 30 -1 33 -3 19 -14 -9 -7 -20 -28 -24 -47 l-7 -34 -14
30 c-9 18 -13 22 -11 9 1 -11 -4 -20 -10 -21 -7 -1 -17 -2 -21 -3 -9 -1 -9
-42 1 -58 3 -5 0 -18 -7 -28 -13 -18 -15 -17 -38 6 -14 14 -27 29 -29 35 -2 5
-25 26 -51 47 -36 29 -48 45 -48 65 0 21 2 24 10 12 7 -12 13 -13 27 -4 21 13
49 -8 37 -28 -5 -7 -3 -8 5 -3 7 4 11 18 8 31 -3 19 0 24 15 24 11 0 17 -4 13
-9z m275 -16 c0 -14 5 -25 11 -25 6 0 9 9 6 20 -3 13 0 20 8 20 8 0 17 -15 21
-35 7 -41 8 -40 -29 -49 -23 -5 -27 -4 -25 11 2 10 -4 19 -14 21 -20 4 -25
-24 -6 -30 7 -3 8 -10 4 -17 -6 -10 -13 -7 -25 12 -9 13 -22 22 -28 20 -8 -3
-13 5 -13 22 0 20 8 29 33 40 46 20 57 18 57 -10z m116 10 c-3 -10 -1 -15 7
-13 7 2 14 -1 15 -7 1 -5 -13 -10 -30 -11 -39 -1 -58 5 -58 18 0 6 7 7 15 4 9
-3 18 1 21 9 4 8 13 15 21 15 10 0 13 -6 9 -15z m-2301 -4 c-6 -4 -23 -11 -40
-14 l-30 -6 30 14 c35 16 54 19 40 6z m-470 -11 c3 -5 -3 -10 -15 -10 -12 0
-18 5 -15 10 3 6 10 10 15 10 5 0 12 -4 15 -10z m545 -10 c-19 -13 -30 -13
-30 0 0 6 10 10 23 10 18 0 19 -2 7 -10z m-420 -10 c0 -5 -5 -10 -11 -10 -5 0
-7 5 -4 10 3 6 8 10 11 10 2 0 4 -4 4 -10z m210 0 c8 -5 11 -12 7 -16 -4 -4
-15 0 -24 9 -18 18 -8 23 17 7z m2533 -6 c9 -4 17 -10 17 -14 0 -13 -38 -18
-49 -7 -15 15 -14 40 2 33 6 -3 20 -9 30 -12z m-2803 -4 c0 -5 -4 -10 -10 -10
-5 0 -10 5 -10 10 0 6 5 10 10 10 6 0 10 -4 10 -10z m2483 -20 c3 -11 16 -24
28 -29 20 -7 17 -9 -25 -15 -26 -4 -49 -6 -50 -4 -2 2 1 18 6 36 10 36 33 43
41 12z m457 -35 c-7 -8 -16 -13 -20 -10 -4 3 -11 -3 -14 -12 -5 -12 -10 -13
-17 -6 -13 13 -4 33 15 33 8 0 20 7 27 16 9 11 15 12 17 5 2 -7 -2 -18 -8 -26z
m-3090 15 c0 -5 -2 -10 -4 -10 -3 0 -8 5 -11 10 -3 6 -1 10 4 10 6 0 11 -4 11
-10z m437 -30 c44 0 56 -12 27 -28 -12 -7 -13 -11 -4 -17 8 -5 4 -15 -15 -35
-23 -24 -31 -27 -45 -18 -10 7 -16 18 -13 27 4 12 2 11 -9 -2 -12 -16 -18 -17
-41 -6 -15 7 -27 16 -27 20 0 4 -3 14 -6 23 -4 12 0 16 15 16 12 0 29 9 38 20
11 13 21 16 27 10 6 -6 29 -10 53 -10z m2763 -1 c0 -6 -4 -7 -10 -4 -5 3 -10
11 -10 16 0 6 5 7 10 4 6 -3 10 -11 10 -16z m-3600 -22 c0 -5 -4 -5 -10 -2 -5
3 -10 14 -10 23 0 15 2 15 10 2 5 -8 10 -19 10 -23z m3294 18 c-4 -8 -11 -12
-16 -9 -6 4 -5 10 3 15 19 12 19 11 13 -6z m-3087 -21 c-3 -3 -12 -4 -19 -1
-8 3 -5 6 6 6 11 1 17 -2 13 -5z m3042 -5 c45 -16 42 -39 -4 -25 -19 6 -35 17
-35 23 0 16 -1 16 39 2z m-2951 -18 c3 -8 -1 -12 -9 -9 -7 2 -15 10 -17 17 -3
8 1 12 9 9 7 -2 15 -10 17 -17z m-78 5 c0 -3 -4 -8 -10 -11 -5 -3 -10 -1 -10
4 0 6 5 11 10 11 6 0 10 -2 10 -4z m360 -6 c0 -5 -7 -10 -15 -10 -8 0 -15 5
-15 10 0 6 7 10 15 10 8 0 15 -4 15 -10z m2901 -11 c17 -9 18 -12 4 -25 -13
-13 -17 -13 -36 5 -17 16 -26 18 -50 9 -35 -12 -47 -5 -28 18 14 17 72 14 110
-7z m-501 1 c-8 -5 -22 -9 -30 -9 -10 0 -8 3 5 9 27 12 43 12 25 0z m220 -30
c0 -5 -4 -10 -10 -10 -5 0 -10 5 -10 10 0 6 5 10 10 10 6 0 10 -4 10 -10z
m600 -20 c0 -5 -4 -10 -9 -10 -6 0 -13 5 -16 10 -3 6 1 10 9 10 9 0 16 -4 16
-10z m-55 -12 c28 -12 35 -34 8 -23 -10 4 -26 10 -35 12 -10 3 -15 9 -12 14 7
11 8 11 39 -3z m-1360 -91 c-3 -18 -23 -133 -44 -257 -36 -202 -57 -342 -76
-497 l-7 -52 -117 234 c-111 220 -221 473 -221 508 0 8 22 29 48 46 47 30 48
30 96 16 92 -28 229 -16 286 25 32 23 42 16 35 -23z m772 -19 c-3 -7 -5 -2 -5
12 0 14 2 19 5 13 2 -7 2 -19 0 -25z m333 -11 c0 -7 -4 -6 -10 3 -6 10 -10 11
-10 3 0 -7 -8 -13 -17 -13 -17 1 -16 2 1 15 20 15 36 12 36 -8z m-2865 3 c3
-6 -1 -7 -9 -4 -18 7 -21 14 -7 14 6 0 13 -4 16 -10z m2485 0 c0 -5 -5 -10
-11 -10 -5 0 -7 5 -4 10 3 6 8 10 11 10 2 0 4 -4 4 -10z m277 -12 c-2 -7 -14
-13 -27 -13 -12 0 -32 -13 -44 -28 -27 -34 -32 -34 -31 1 0 24 5 28 45 38 61
16 62 16 57 2z m32 -29 c-20 -12 -22 -4 -7 20 11 18 14 19 16 5 2 -9 -2 -20
-9 -25z m131 5 c0 -10 -6 -11 -30 -3 -16 6 -28 14 -25 19 7 12 55 -1 55 -16z
m-65 -64 c3 -5 2 -10 -4 -10 -5 0 -13 5 -16 10 -3 6 -2 10 4 10 5 0 13 -4 16
-10z m80 -60 c-3 -5 -10 -10 -16 -10 -5 0 -9 5 -9 10 0 6 7 10 16 10 8 0 12
-4 9 -10z m102 -76 c-3 -3 -12 -4 -19 -1 -8 3 -5 6 6 6 11 1 17 -2 13 -5z
m-572 -14 c3 -5 1 -10 -4 -10 -6 0 -11 5 -11 10 0 6 2 10 4 10 3 0 8 -4 11
-10z m558 -85 c-3 -9 -8 -14 -10 -11 -3 3 -2 9 2 15 9 16 15 13 8 -4z m128
-12 c0 -5 2 -18 5 -31 3 -20 0 -23 -18 -21 -13 2 -29 0 -35 -4 -8 -5 -13 -4
-13 2 0 6 5 11 10 11 6 0 16 11 22 25 11 24 27 34 29 18z m-551 -7 c0 -2 -7
-6 -15 -10 -8 -3 -15 -1 -15 4 0 6 7 10 15 10 8 0 15 -2 15 -4z m-3285 -26
c-4 -11 -2 -20 4 -20 6 0 11 -4 11 -10 0 -17 -14 -11 -28 10 -13 21 -9 40 9
40 6 0 7 -9 4 -20z m269 -25 c-6 -16 -24 -21 -24 -7 0 11 11 22 21 22 5 0 6
-7 3 -15z m238 -36 c9 -6 -8 -67 -23 -83 -5 -6 -9 -16 -9 -24 0 -7 -7 -21 -16
-30 -15 -15 -16 -12 -11 39 3 30 4 46 1 37 -8 -25 -22 -22 -27 5 -4 20 -4 19
-6 -4 -1 -32 -18 -47 -48 -44 -15 1 -23 -4 -23 -14 -1 -14 -3 -13 -14 2 -9 11
-17 14 -20 8 -4 -6 -14 -7 -23 -4 -13 5 -15 2 -11 -15 8 -31 -9 -27 -26 6 -8
15 -15 21 -16 14 0 -7 -7 -21 -16 -29 -8 -9 -13 -24 -11 -34 6 -24 -9 -25 -17
-2 -4 9 -1 20 5 24 7 4 9 14 4 25 -7 18 -8 18 -15 -1 -13 -32 -12 6 1 45 9 24
9 34 0 39 -9 6 -6 15 8 32 17 20 20 21 21 7 0 -23 9 -23 26 -1 17 24 28 10 14
-17 -11 -20 -8 -26 20 -52 25 -23 35 -26 46 -17 20 17 17 31 -5 24 -17 -5 -19
-1 -18 29 1 21 7 36 15 36 6 0 12 5 12 12 0 9 3 9 12 0 16 -16 28 -15 28 3 0
8 9 15 21 15 11 0 17 -4 14 -10 -3 -5 0 -10 9 -10 8 0 16 -5 18 -11 6 -18 48
8 48 29 1 14 2 14 12 -3 6 -11 15 -23 20 -26z m-342 3 c0 -5 -9 -17 -20 -27
-19 -18 -20 -17 -20 3 0 18 11 29 33 31 4 1 7 -3 7 -7z m2 -87 c-2 -14 -8 -28
-13 -31 -5 -3 -9 -14 -9 -25 0 -10 -4 -19 -9 -19 -15 0 -1 73 17 86 9 8 18 14
18 14 1 0 -1 -11 -4 -25z m261 -40 c-6 -9 -14 -17 -19 -17 -5 1 -8 -6 -6 -13
2 -10 -3 -13 -13 -9 -19 8 -19 23 0 30 8 3 17 15 21 26 4 13 9 17 16 10 6 -6
7 -16 1 -27z m3484 -64 c2 -39 -1 -51 -9 -43 -7 7 -16 5 -31 -9 -12 -11 -27
-17 -34 -15 -7 3 -15 1 -19 -5 -11 -19 5 -21 37 -5 40 20 39 20 39 -5 0 -14
-5 -19 -14 -16 -8 3 -17 3 -20 0 -3 -3 -24 -7 -46 -9 -38 -3 -40 -2 -39 24 1
15 -1 39 -5 53 -7 24 -4 27 24 33 40 7 90 43 90 62 0 13 2 13 13 2 7 -7 13
-37 14 -67z m-3812 42 c-8 -8 -15 -19 -15 -24 0 -5 -6 -9 -14 -9 -10 0 -12 7
-8 23 6 26 20 37 38 30 11 -4 11 -8 -1 -20z m3522 -37 c-8 -20 -37 -10 -37 13
0 10 3 21 7 25 11 11 36 -21 30 -38z m-297 29 c0 -2 -7 -20 -17 -39 -20 -43
-46 -58 -37 -21 4 15 2 25 -5 25 -6 0 -11 -5 -11 -11 0 -8 -5 -8 -15 1 -25 20
-17 29 20 25 26 -4 37 -1 41 10 6 14 24 22 24 10z m145 -5 c3 -5 1 -10 -4 -10
-6 0 -11 5 -11 10 0 6 2 10 4 10 3 0 8 -4 11 -10z m-122 -30 c-3 -11 -12 -20
-20 -20 -12 0 -13 3 -4 13 6 8 8 17 4 20 -3 4 1 7 9 7 11 0 14 -6 11 -20z
m-3193 1 c0 -6 -4 -13 -10 -16 -5 -3 -10 1 -10 9 0 9 5 16 10 16 6 0 10 -4 10
-9z m3520 -10 c0 -4 -7 -8 -15 -8 -16 0 -20 9 -9 20 8 8 24 -1 24 -12z m-13
-53 c-3 -7 -5 -2 -5 12 0 14 2 19 5 13 2 -7 2 -19 0 -25z m-187 12 c0 -5 -5
-10 -11 -10 -5 0 -7 5 -4 10 3 6 8 10 11 10 2 0 4 -4 4 -10z m-46 -9 c3 -5 -1
-11 -9 -14 -9 -4 -12 -1 -8 9 6 16 10 17 17 5z m203 -4 c-1 -5 -6 -8 -10 -8
-4 1 -14 1 -22 1 -8 0 -15 3 -15 8 0 4 11 7 25 7 14 0 24 -4 22 -8z m113 3 c0
-5 -4 -10 -10 -10 -5 0 -10 5 -10 10 0 6 5 10 10 10 6 0 10 -4 10 -10z m-465
-10 c3 -5 1 -10 -4 -10 -6 0 -11 5 -11 10 0 6 2 10 4 10 3 0 8 -4 11 -10z
m440 -29 c-3 -6 -11 -9 -16 -6 -5 4 -9 -6 -9 -22 l0 -28 -20 25 c-25 32 -25
37 3 36 16 -1 22 4 20 18 -1 17 0 17 14 3 8 -8 12 -20 8 -26z m-3735 15 c0 -3
-4 -8 -10 -11 -5 -3 -10 -1 -10 4 0 6 5 11 10 11 6 0 10 -2 10 -4z m120 -6 c0
-5 -4 -10 -10 -10 -5 0 -10 5 -10 10 0 6 5 10 10 10 6 0 10 -4 10 -10z m3261
-35 c5 4 9 1 9 -4 0 -6 -4 -11 -10 -11 -5 0 -7 -7 -3 -16 5 -13 7 -13 15 -2 7
10 10 10 19 -4 11 -20 44 -24 54 -7 8 13 45 -18 45 -38 0 -18 -16 -17 -24 2
-7 18 -62 20 -69 3 -4 -9 -8 -10 -14 -2 -11 14 -43 25 -43 15 0 -14 -54 -24
-58 -11 -3 9 -7 8 -13 -1 -8 -12 -10 -12 -18 -1 -7 11 -9 11 -14 -2 -4 -9 -14
-16 -22 -16 -10 0 -13 5 -9 12 4 6 0 16 -9 23 -14 10 -14 13 5 29 20 18 21 18
15 -3 -5 -19 -2 -21 16 -15 12 4 24 11 25 15 2 5 14 9 28 9 17 0 22 4 17 16
-4 12 -2 15 8 12 8 -3 14 -10 14 -16 0 -5 3 -14 8 -18 4 -4 8 13 8 37 2 30 3
35 6 16 2 -15 9 -25 14 -22z m239 31 c0 -3 -4 -8 -10 -11 -5 -3 -10 -1 -10 4
0 6 5 11 10 11 6 0 10 -2 10 -4z m-3505 -114 c-5 -6 -25 61 -24 82 0 12 6 -1
14 -29 7 -27 12 -51 10 -53z m3187 76 c-7 -7 -12 -8 -12 -2 0 14 12 26 19 19
2 -3 -1 -11 -7 -17z m608 12 c0 -5 -2 -10 -4 -10 -3 0 -8 5 -11 10 -3 6 -1 10
4 10 6 0 11 -4 11 -10z m-3545 -40 c5 -17 4 -22 -3 -15 -5 6 -13 21 -17 35 -5
17 -4 22 3 15 5 -5 13 -21 17 -35z m3399 25 c-4 -8 -10 -15 -15 -15 -4 0 -6 7
-3 15 4 8 10 15 15 15 4 0 6 -7 3 -15z m-3459 -4 c3 -5 1 -12 -5 -16 -5 -3
-10 1 -10 9 0 18 6 21 15 7z m95 -28 c-11 -17 -11 -17 -6 0 3 10 6 24 7 30 0
9 2 9 5 0 3 -7 0 -20 -6 -30z m3260 0 c-1 -24 -2 -26 -11 -10 -5 9 -7 22 -4
27 10 17 15 11 15 -17z m80 -28 c0 -8 9 -15 20 -15 13 0 20 -7 20 -19 0 -25
-28 -35 -47 -16 -8 8 -19 13 -24 10 -5 -4 -9 1 -9 9 0 9 5 16 11 16 6 0 9 7 5
15 -3 9 0 15 9 15 8 0 15 -7 15 -15z m103 1 c4 -10 0 -12 -14 -9 -22 6 -26 23
-5 23 8 0 16 -6 19 -14z m97 -1 c0 -8 -9 -19 -19 -24 -17 -10 -18 -9 -7 14 12
28 26 33 26 10z m-3560 -11 c0 -8 -4 -12 -10 -9 -5 3 -10 10 -10 16 0 5 5 9
10 9 6 0 10 -7 10 -16z m3005 -14 c-3 -5 -1 -10 5 -10 6 0 8 -5 4 -11 -4 -8
-9 -7 -15 2 -12 19 -11 29 2 29 5 0 7 -4 4 -10z m62 -22 c-3 -8 -6 -5 -6 6 -1
11 2 17 5 13 3 -3 4 -12 1 -19z m-3427 8 c0 -2 -7 -7 -16 -10 -8 -3 -12 -2 -9
4 6 10 25 14 25 6z m3320 -10 c0 -9 -7 -12 -21 -9 -16 4 -17 8 -7 14 19 13 28
11 28 -5z m-3170 -36 c0 -5 -4 -10 -10 -10 -5 0 -10 5 -10 10 0 6 5 10 10 10
6 0 10 -4 10 -10z"/>
<path d="M390 1280 c0 -5 5 -10 10 -10 6 0 10 5 10 10 0 6 -4 10 -10 10 -5 0
-10 -4 -10 -10z"/>
<path d="M2991 1184 c0 -11 3 -14 6 -6 3 7 2 16 -1 19 -3 4 -6 -2 -5 -13z"/>
<path d="M3005 1149 c-4 -6 -5 -13 -2 -16 7 -7 27 6 27 18 0 12 -17 12 -25 -2z"/>
<path d="M3196 1271 c-12 -5 -16 -10 -9 -14 13 -8 43 2 43 14 0 10 -8 10 -34
0z"/>
<path d="M430 479 c0 -5 5 -7 10 -4 6 3 10 8 10 11 0 2 -4 4 -10 4 -5 0 -10
-5 -10 -11z"/>
<path d="M287 453 c-4 -3 -7 -11 -7 -17 0 -6 5 -5 12 2 6 6 9 14 7 17 -3 3 -9
2 -12 -2z"/>
<path d="M434 445 c-6 -15 2 -35 14 -35 4 0 8 11 8 25 2 27 -13 34 -22 10z"/>
<path d="M535 430 c3 -5 8 -10 11 -10 2 0 4 5 4 10 0 6 -5 10 -11 10 -5 0 -7
-4 -4 -10z"/>
<path d="M300 420 c-12 -8 -11 -10 8 -10 12 0 22 5 22 10 0 13 -11 13 -30 0z"/>
<path d="M1962 2920 c-145 -30 -245 -153 -245 -301 0 -57 6 -80 32 -133 36
-73 73 -109 146 -142 74 -33 124 -38 195 -20 117 30 196 109 226 226 18 71 13
121 -20 195 -33 73 -69 111 -139 144 -70 34 -132 44 -195 31z m174 -81 c27
-14 64 -45 83 -70 l34 -44 -119 -7 c-262 -14 -344 -15 -344 -3 0 19 55 89 84
109 80 52 179 58 262 15z m134 -221 c0 -135 -112 -247 -248 -248 -129 0 -236
96 -249 225 -6 54 -5 55 21 55 19 0 26 -5 26 -20 0 -11 11 -27 24 -35 32 -21
66 -5 66 30 0 14 3 26 8 26 4 1 75 5 157 9 83 3 160 7 173 8 20 2 22 -2 22
-50z"/>
<path d="M3555 1360 c-3 -5 -1 -10 4 -10 6 0 11 5 11 10 0 6 -2 10 -4 10 -3 0
-8 -4 -11 -10z"/>
<path d="M3410 1350 c-8 -5 -12 -11 -9 -14 2 -3 11 -1 19 4 8 5 12 11 9 14 -2
3 -11 1 -19 -4z"/>
<path d="M3590 1356 c0 -2 6 -9 13 -15 10 -8 14 -7 14 4 0 8 -6 15 -14 15 -7
0 -13 -2 -13 -4z"/>
<path d="M3835 1350 c3 -5 10 -10 16 -10 5 0 9 5 9 10 0 6 -7 10 -16 10 -8 0
-12 -4 -9 -10z"/>
<path d="M3890 1350 c0 -5 5 -10 10 -10 6 0 10 5 10 10 0 6 -4 10 -10 10 -5 0
-10 -4 -10 -10z"/>
<path d="M1321 506 c-10 -11 -6 -26 15 -68 37 -73 46 -184 17 -225 -24 -32
-87 -157 -97 -190 -7 -20 -4 -23 23 -23 28 0 34 5 56 56 38 86 110 188 172
243 38 34 54 55 50 65 -10 25 -46 19 -85 -15 l-36 -32 -13 59 c-15 65 -57 144
-77 144 -8 0 -19 -6 -25 -14z"/>
<path d="M80 405 c0 -8 7 -15 15 -15 8 0 15 7 15 15 0 8 -7 15 -15 15 -8 0
-15 -7 -15 -15z"/>
<path d="M0 386 c0 -36 17 -41 18 -6 0 17 -4 30 -9 30 -5 0 -9 -11 -9 -24z"/>
<path d="M40 344 c0 -17 18 -36 30 -32 7 2 4 10 -9 22 -12 11 -21 15 -21 10z"/>
<path d="M3630 21 c0 -6 5 -13 10 -16 6 -3 10 1 10 9 0 9 -4 16 -10 16 -5 0
-10 -4 -10 -9z"/>
<path d="M3660 10 c0 -5 10 -10 23 -10 18 0 19 2 7 10 -19 13 -30 13 -30 0z"/>
</g>
</svg>
